<svg xmlns="http://www.w3.org/2000/svg" viewBox="0 0 400 200" fill="none">
  <!-- 배경 -->
  <rect width="400" height="200" rx="8" fill="#F5F5F5"/>
  <!-- 2:1 비율 -->
  <rect x="16" y="16" width="120" height="60" rx="4" fill="#4A90D9" opacity="0.8"/>
  <text x="76" y="42" text-anchor="middle" fill="white" font-size="8" font-family="sans-serif" font-weight="bold">2:1</text>
  <text x="76" y="54" text-anchor="middle" fill="white" font-size="6" font-family="sans-serif" opacity="0.8">1200×600</text>
  <!-- 1:1 비율 -->
  <rect x="148" y="16" width="60" height="60" rx="4" fill="#7B61FF" opacity="0.8"/>
  <text x="178" y="42" text-anchor="middle" fill="white" font-size="8" font-family="sans-serif" font-weight="bold">1:1</text>
  <text x="178" y="54" text-anchor="middle" fill="white" font-size="6" font-family="sans-serif" opacity="0.8">500×500</text>
  <!-- 9:16 비율 -->
  <rect x="220" y="16" width="50" height="89" rx="4" fill="#FF6B6B" opacity="0.8"/>
  <text x="245" y="55" text-anchor="middle" fill="white" font-size="8" font-family="sans-serif" font-weight="bold">9:16</text>
  <text x="245" y="67" text-anchor="middle" fill="white" font-size="6" font-family="sans-serif" opacity="0.8">720×1280</text>
  <!-- 4:5 비율 -->
  <rect x="282" y="16" width="56" height="70" rx="4" fill="#2ECC71" opacity="0.8"/>
  <text x="310" y="46" text-anchor="middle" fill="white" font-size="8" font-family="sans-serif" font-weight="bold">4:5</text>
  <text x="310" y="58" text-anchor="middle" fill="white" font-size="6" font-family="sans-serif" opacity="0.8">800×1000</text>
  <!-- 설명 -->
  <rect x="16" y="125" width="368" height="58" rx="6" fill="white"/>
  <rect x="28" y="137" width="100" height="8" rx="2" fill="#DDDDDD"/>
  <rect x="28" y="151" width="200" height="6" rx="2" fill="#EEEEEE"/>
  <rect x="28" y="163" width="160" height="6" rx="2" fill="#EEEEEE"/>
  <text x="200" y="193" text-anchor="middle" fill="#999" font-size="7" font-family="sans-serif">다양한 비율의 디스플레이 광고</text>
</svg>
